<?xml version="1.0" standalone="no"?>
<!DOCTYPE svg PUBLIC "-//W3C//DTD SVG 20010904//EN"
 "http://www.w3.org/TR/2001/REC-SVG-20010904/DTD/svg10.dtd">
<svg version="1.0" xmlns="http://www.w3.org/2000/svg"
 width="68.000000pt" height="78.000000pt" viewBox="0 0 68.000000 78.000000"
 preserveAspectRatio="xMidYMid meet">
<metadata>
Created by potrace 1.16, written by Peter Selinger 2001-2019
</metadata>
<g transform="translate(0.000000,78.000000) scale(0.100000,-0.100000)"
fill="#000000" stroke="none">
<path d="M265 706 c-135 -42 -225 -161 -225 -297 0 -88 22 -148 77 -209 48
-54 115 -95 139 -86 23 9 16 21 -21 39 -55 26 -111 83 -135 138 -24 56 -24 54
6 63 19 6 23 2 28 -29 7 -35 7 -35 61 -35 l55 0 0 87 0 87 -57 58 c-45 45 -55
60 -45 70 7 7 15 8 20 3 5 -6 31 -34 58 -64 l49 -53 1 -86 0 -86 75 -2 c41 -1
83 -3 94 -5 15 -3 20 1 20 16 0 18 -6 19 -82 16 l-83 -3 0 78 c0 65 -3 81 -21
100 l-20 22 27 21 c20 16 30 18 40 10 8 -6 14 -18 14 -25 0 -19 36 -18 43 1 4
9 -5 21 -24 32 -31 19 -43 45 -37 84 2 18 10 25 33 27 30 4 48 19 39 34 -8 12
-83 8 -129 -6z m-110 -205 c-4 -12 -18 -27 -31 -33 -30 -14 -33 -48 -4 -48 12
0 24 9 29 23 5 13 17 29 26 37 28 24 45 -11 45 -95 0 -71 0 -71 -27 -70 -24 0
-28 5 -31 33 -3 31 -5 32 -49 32 l-46 0 7 46 c3 25 15 67 26 92 l21 46 20 -21
c15 -14 19 -27 14 -42z"/>
<path d="M419 700 c-1 -5 -2 -15 -3 -21 -1 -6 15 -16 34 -23 28 -9 35 -16 35
-36 0 -22 -5 -25 -37 -28 -37 -3 -38 -4 -39 -48 -1 -24 -2 -50 -3 -56 -1 -7 8
-13 19 -13 15 0 19 6 17 25 -1 14 -4 34 -5 45 -1 15 4 20 23 20 22 0 25 -5 28
-44 3 -39 -1 -48 -35 -83 -38 -39 -54 -43 -113 -27 -9 2 -16 -4 -18 -19 -3
-22 -2 -23 50 -16 29 4 61 13 71 22 15 14 19 13 37 -3 15 -14 20 -31 20 -72 0
-39 6 -62 22 -83 26 -36 18 -49 -50 -81 l-45 -22 -27 31 c-21 25 -34 32 -63
32 -33 0 -37 3 -37 25 0 24 3 25 60 25 56 0 60 -2 75 -30 16 -31 40 -40 48
-17 6 17 -3 37 -18 37 -6 0 -20 9 -30 20 -16 18 -29 20 -89 18 -55 -2 -71 -6
-71 -18 0 -11 -11 -14 -43 -12 -40 2 -43 1 -40 -20 2 -17 9 -22 23 -20 49 8
60 6 60 -8 0 -10 13 -16 41 -18 28 -2 49 -11 64 -28 l23 -24 -45 0 c-32 0 -48
-5 -52 -15 -8 -22 16 -29 75 -22 155 19 279 153 279 304 0 114 -69 236 -155
277 -19 9 -35 21 -35 26 0 13 -50 13 -51 0z m135 -113 c30 -39 32 -47 11 -47
-11 0 -15 -12 -15 -47 0 -27 -3 -58 -6 -70 -4 -16 -1 -25 11 -29 25 -10 33 12
22 55 -17 63 12 100 34 44 21 -55 14 -149 -16 -209 -26 -53 -28 -55 -46 -38
-37 33 -36 84 1 64 12 -7 21 -6 28 3 17 21 -2 41 -32 33 -23 -6 -26 -3 -26 17
0 13 -9 32 -20 42 -24 22 -26 35 -5 35 12 0 15 17 15 90 0 50 4 90 9 90 6 0
21 -15 35 -33z"/>
</g>
</svg>
